<?xml version="1.0" encoding="utf-8"?><svg xmlns="http://www.w3.org/2000/svg" xml:space="preserve" width="666.261" height="806.37" viewBox="0 0 176.282 213.352" fill="#000000" role="img"><path d="M137.52 236.986c-4.548-1.067-9.399-5.16-11.309-9.545l-1.004-2.305-4.266-.214c-2.345-.117-6.487-.535-9.204-.927-7.709-1.114-10.481-1.004-21.343.847-2.813.48-5.859.965-6.768 1.08-1.486.186-1.741.357-2.533 1.708-2.728 4.655-8.222 7.265-15.32 7.276-5.505.01-9.907-1.137-17.171-4.471-5.382-2.47-8.8-3.329-17.92-4.5-10.066-1.294-12.508-2.083-14.82-4.784-.678-.791-1.431-2.153-1.676-3.025-.613-2.192-.256-6.021.902-9.663 1.045-3.285 1.06-4.726.132-12.4-.545-4.511-.163-6.818 1.557-9.39 1.46-2.187 3.612-3.588 8.267-5.385 4.632-1.788 5.486-2.42 8.248-6.098 1.196-1.593 2.635-3.388 3.197-3.989l1.022-1.092.123-6.316c.094-4.795.298-7.056.847-9.39 3.182-13.509 10.287-26.967 22.53-42.672 4.778-6.129 6.123-8.117 7.952-11.757 2.93-5.827 4.84-13.65 4.908-20.108.019-1.747-.17-7.067-.42-11.824-.716-13.67.338-21.856 3.701-28.746 5.14-10.53 16.066-15.89 31.058-15.235 5.457.238 8.944 1.06 13.21 3.111 2.507 1.207 3.564 2.002 6.25 4.706 2.87 2.891 3.452 3.705 5.208 7.288 3.73 7.614 5.136 15.839 5.147 30.116.008 11.32.38 15.52 1.727 19.544 2.047 6.109 4.595 10.18 12.774 20.412 13.625 17.044 19.816 28.864 22.018 42.038.87 5.203.582 13.759-.613 18.214l-.857 3.195 1.735 1.039c1.92 1.15 3.51 2.952 4.325 4.902.294.704 1.08 3.331 1.748 5.838 1.601 6.015 1.842 6.533 4.618 9.943 4.248 5.22 5.611 9.534 4.04 12.782-1.28 2.644-3.663 4.424-10.683 7.98-8.91 4.515-10.649 5.72-16.496 11.423-6.695 6.53-9.297 8.246-15.007 9.901-3.238.938-7.108 1.132-9.834.493m6.673-4.892c4.903-.796 7.821-2.599 15.713-9.706 6.56-5.907 7.419-6.485 19.127-12.876 1.894-1.034 4.077-2.464 4.851-3.179 2.192-2.023 1.967-3.075-1.77-8.287-2.725-3.8-3.813-6.08-5.947-12.467-.995-2.976-2.15-5.891-2.568-6.478-.994-1.396-2.627-2.045-5.141-2.044-2.231 0-2.849.268-6.677 2.891-1.373.94-3.64 2.064-5.24 2.596-2.406.8-3.27.918-5.846.795-2.492-.119-3.31-.313-4.66-1.103-1.844-1.08-3.96-3.812-5.234-6.753-.463-1.068-.954-1.945-1.091-1.949-.537-.013-2.043 3.124-2.542 5.294-.288 1.257-.86 5.38-1.27 9.164-.89 8.23-1.569 11.884-3.916 21.084-2.32 9.089-2.634 13.09-1.262 16.086.896 1.957 3.95 5.56 5.35 6.313 1.767.95 4.708 1.174 8.123.62m-73.564-2.68c2.083-.619 4.014-1.74 5.193-3.016 1.023-1.108 2.608-4.61 2.823-6.239.361-2.747-2.145-7.424-8.772-16.37-4.673-6.306-7.95-11.375-12.619-19.524-3.716-6.485-6.128-9.839-7.948-11.055-.963-.643-1.902-.888-3.89-1.016l-2.62-.168-2.218 2.412c-7.819 8.5-8.413 8.98-14.42 11.599-2.417 1.053-4.162 2.067-4.94 2.869-1.195 1.233-1.203 1.261-1.185 4.485.01 1.784.153 5.405.317 8.046.274 4.407.233 5.059-.501 7.937-.44 1.725-.82 4.194-.846 5.486-.081 4.13.581 4.458 13.007 6.466 9.254 1.494 12.937 2.43 18.67 4.741 3.88 1.565 8.75 3.247 10.61 3.665 1.8.405 7.567.208 9.339-.318m39.168-19.522c5.182-1.384 11.578-4.265 13.106-5.904 1.64-1.757 2.267-4.626 4.35-19.91 1.24-9.099 1.775-10.726 5.144-15.665 1.874-2.747 3.738-4.996 7.895-9.525l2.802-3.053-1.341-4.118c-1.932-5.932-5.338-14.425-9.997-24.932-4.262-9.611-9.994-23.663-11.37-27.87-.444-1.357-.84-2.51-.879-2.559s-3.385 1.51-7.435 3.467-8.508 3.942-9.908 4.412c-2.986 1.002-6.365 1.12-9.402.33-2.247-.585-6.13-2.461-8.009-3.869l-1.232-.923-.743 2.96c-1.662 6.612-4.243 13.479-11.406 30.352-4.255 10.025-6.424 16.305-7.45 21.57-1.543 7.93-1.81 9.005-2.61 10.508l-.817 1.537 6.39 4.914c10.09 7.759 14.054 11.887 16.71 17.403 2.362 4.91 2.011 9.237-1.02 12.553l-1.712 1.873 1.742 1.566c2.584 2.324 6.938 4.418 11.846 5.7.388.102 3.405.118 6.703.037 4.514-.111 6.652-.323 8.643-.854m44.45-53.12c0-1.038-.273-1.117-.92-.265-.655.863-.602 1.146.215 1.146.517 0 .705-.235.705-.882m-94.378-27.32c3.041-6.17 3.943-8.536 3.04-7.978-.46.285-4.243 6.848-6.2 10.757-1.56 3.117-1.626 3.359-1.038 3.789.346.253.675.413.732.356.058-.058 1.617-3.173 3.466-6.924m89.772.352c.398-.252.426-.5.125-1.141-1.29-2.749-8.115-10.874-9.134-10.874-.983 0-.46 1.116 1.535 3.272 2.257 2.44 4.077 4.873 5.536 7.4 1.023 1.774 1.135 1.85 1.938 1.343m-47.71-31.766c1.513-.601 3.941-1.779 5.397-2.618 1.455-.84 3.863-2.033 5.352-2.653 5.432-2.26 8.76-5.634 8.757-8.875-.003-3.108-1.664-4.547-7.936-6.873-1.94-.72-5.115-2.147-7.055-3.17-4.22-2.228-6.622-2.98-9.525-2.98-4.21 0-5.58.693-12.914 6.527-6.12 4.87-6.313 5.086-6.313 7.118 0 2.436 1.635 4.649 5.292 7.164 1.067.734 2.972 2.163 4.233 3.176 5.959 4.783 9.015 5.444 14.712 3.184m-11.009-5.302c-5.477-1.737-13.27-8.495-10.862-9.42.326-.124 1.105.478 2.123 1.642 2.017 2.305 4.783 4.363 7.705 5.73 2.156 1.009 2.44 1.052 6.058.926 3.274-.115 4.193-.29 6.676-1.28 3.485-1.388 8.51-4.498 11.429-7.073 1.63-1.439 2.248-1.797 2.558-1.487 1.197 1.197-3.416 4.999-10.095 8.32-6.711 3.339-11.069 4.077-15.592 2.642m-.42-17.155c-.315-.82.817-1.536 2.43-1.536 1.763 0 1.8.858.065 1.583-1.638.684-2.218.673-2.495-.047m9.858-.035c-2.086-1.038-1.01-2.125 1.347-1.363 1.5.484 1.976 1.993.618 1.956-.45-.012-1.334-.28-1.965-.593m-16.323-.212c.004-.164-.286-.72-.644-1.235-1.602-2.301-1.946-6.194-.775-8.773 1.709-3.764 5.63-.998 5.652 3.986.004.986.096 1.882.204 1.99s1.14-.22 2.293-.73l2.097-.927V66.96c0-9.705-8.062-15.191-12.962-8.82-3.458 4.497-3.323 13.015.286 17.997l1.059 1.463 1.391-.984c.765-.542 1.395-1.119 1.399-1.283m36.472-1.642c1.05-2.179 1.106-2.504 1.106-6.526 0-4.078-.044-4.328-1.2-6.792-2.558-5.46-7.085-8.015-11.778-6.65-4.149 1.205-7.274 5.503-8.094 11.127-.585 4.014-.348 4.495 2.728 5.533 1.358.458 2.588.834 2.734.836.145.001.266-.99.268-2.202.004-2.627 1.19-5.52 2.656-6.48 1.211-.793 3.17-.748 4.103.096 2.56 2.315 3.146 7.944 1.134 10.909-.482.71-.777 1.39-.656 1.51.121.122 1.28.647 2.575 1.167 2.753 1.107 2.638 1.173 4.424-2.528" transform="translate(-13.89 -24.007)"/></svg>