<?xml version="1.0" encoding="UTF-8" standalone="no"?>
<!-- Created with Inkscape (http://www.inkscape.org/) -->

<svg
   width="86.389137mm"
   height="76.344955mm"
   viewBox="0 0 86.389137 76.344955"
   version="1.1"
   id="svg1"
   xml:space="preserve"
   xmlns="http://www.w3.org/2000/svg"
   xmlns:svg="http://www.w3.org/2000/svg"
   fill="#000000"><defs
     id="defs1" /><g
     id="layer1"
     transform="translate(-58.133027,-67.663725)"><path
       d="m 69.325893,143.88736 c -1.529098,-0.30398 -2.981283,-1.42101 -3.673891,-2.82598 -0.782749,-1.58783 -0.792325,-3.3462 -0.02647,-4.86142 0.353802,-0.69999 3.889022,-6.80299 4.00855,-6.92013 0.133834,-0.13117 1.340819,-0.42508 2.23742,-0.54483 0.948936,-0.12675 2.47171,-0.0477 3.388832,0.17585 0.872964,0.21281 2.37367,0.93801 3.122259,1.50879 0.301678,0.23003 0.866218,0.74444 1.254534,1.14315 0.672492,0.69049 0.7003,0.73395 0.585415,0.91501 -0.06634,0.10455 -1.295413,2.23965 -2.731278,4.74466 -2.466582,4.3032 -2.645952,4.59026 -3.250065,5.20133 -0.504067,0.50986 -0.789839,0.71902 -1.350166,0.98818 -1.179493,0.5666 -2.332768,0.72039 -3.565136,0.47539 z m 61.502217,0.006 c -1.24135,-0.2721 -2.41111,-0.98354 -3.12539,-1.90085 -0.50452,-0.64792 -20.45111,-35.23559 -21.09618,-36.58106 -0.76273,-1.5909 -1.16806,-2.89997 -1.43525,-4.63537 -0.19987,-1.298139 -0.13773,-3.84581 0.1257,-5.153336 0.36417,-1.807557 1.16264,-3.802309 2.07544,-5.18493 0.46091,-0.698138 1.30452,-1.702166 1.58414,-1.885378 l 0.21343,-0.139849 3.67189,6.347604 c 2.01953,3.491182 5.58738,9.670279 7.92855,13.731329 l 4.25668,7.38372 7.4995,0.0466 c 8.40069,0.0522 7.8647,0.0121 9.16195,0.68542 1.62571,0.84383 2.70319,2.54481 2.82372,4.4577 0.1581,2.50908 -1.59906,4.90019 -4.06088,5.52597 -0.41671,0.10593 -1.23783,0.12785 -4.78887,0.12785 -2.35726,0 -4.28593,0.0314 -4.28593,0.0697 0,0.0383 1.23521,2.21231 2.7449,4.83106 1.75706,3.04785 2.80821,4.95876 2.92082,5.30987 0.25371,0.79103 0.30645,2.10263 0.11628,2.89141 -0.3834,1.5902 -1.41762,2.89788 -2.85045,3.60412 -1.13292,0.55841 -2.33278,0.71992 -3.48005,0.46844 z M 62.198782,126.54837 c -2.373523,-0.62186 -4.065755,-2.7988 -4.065755,-5.23032 0,-2.0017 1.181238,-3.91704 2.955989,-4.79304 1.255563,-0.61974 1.023923,-0.60418 9.065998,-0.6089 l 7.172758,-0.004 8.691695,-15.06917 c 4.780432,-8.288039 8.743666,-15.173945 8.807186,-15.302009 0.112334,-0.226477 0.03986,-0.364087 -2.650794,-5.032906 -1.521456,-2.640034 -2.853241,-4.989929 -2.959521,-5.221989 -0.313465,-0.684445 -0.454346,-1.373015 -0.454346,-2.220665 0,-1.529792 0.481008,-2.697526 1.556588,-3.778901 0.792111,-0.796378 1.703268,-1.300773 2.747067,-1.520711 1.531322,-0.322664 3.306732,0.133739 4.567504,1.174163 0.569093,0.469632 1.025909,1.140587 2.22367,3.266048 0.640789,1.137093 1.207129,2.112464 1.258539,2.167492 0.0699,0.07481 0.43073,-0.481316 1.43023,-2.204254 0.73522,-1.267367 1.50548,-2.497185 1.71171,-2.73293 1.17366,-1.341668 3.31821,-2.044849 5.09473,-1.670519 2.03482,0.428757 3.71292,2.058072 4.18205,4.060476 0.19098,0.815163 0.13006,2.153845 -0.13365,2.93683 -0.13052,0.387521 -3.9951,7.159961 -11.89382,20.843191 l -11.700491,20.269154 8.950196,0.0456 c 9.875865,0.0503 9.217305,0.0135 10.477665,0.58502 1.21601,0.55137 2.46266,1.70252 3.14879,2.90758 0.66683,1.17116 1.10414,2.77583 1.10414,4.05153 0,0.69201 -0.23008,1.84924 -0.5141,2.58572 l -0.25764,0.66807 -24.95084,-0.005 c -24.273223,-0.005 -24.967539,-0.009 -25.565548,-0.1657 z"
       id="path1" /></g></svg>
