<?xml version="1.0" encoding="UTF-8" standalone="no"?>
<svg
   xml:space="preserve"
   width="72.550003pt"
   height="72.550003pt"
   viewBox="0 0 25.594145 25.594144"
   fill="currentColor"
   role="img"
   version="1.1"
   id="svg1"
   xmlns="http://www.w3.org/2000/svg"
   xmlns:svg="http://www.w3.org/2000/svg"><defs
     id="defs1" /><path
     d="m 12.796617,1.411141 c -2.006,0 -4.0109996,0.76 -5.5299994,2.28 l -3.577,3.577 c -3.03800008,3.038 -3.03800008,8.019999 0,11.058999 l 3.578,3.578 c 3.0389994,3.039 8.0199994,3.037 11.0579994,-10e-4 l 3.578,-3.577 c 3.038,-3.039 3.04,-8.019999 10e-4,-11.057999 l -3.578,-3.578 a 7.8,7.8 0 0 0 -5.53,-2.28 m 1.752,6.072 a 3.56,3.56 0 0 1 2.52,1.042 3.563,3.563 0 0 1 0,5.039999 l -3.505,3.503 a 3.563,3.563 0 0 1 -5.0379994,0 3.563,3.563 0 0 1 0,-5.038 L 12.028617,8.525141 a 3.56,3.56 0 0 1 2.52,-1.042"
     id="path1" /></svg>
