<svg xmlns="http://www.w3.org/2000/svg" xml:space="preserve" width="86.067" height="86.067" viewBox="0 0 22.772 22.772" fill="currentColor" role="img"><path d="M46.405 25.78c-2.006 0-4.011.76-5.53 2.28l-3.577 3.577c-3.038 3.038-3.038 8.02 0 11.059l3.578 3.578c3.039 3.039 8.02 3.037 11.058-.001l3.578-3.577c3.038-3.039 3.04-8.02.001-11.058l-3.578-3.578a7.8 7.8 0 0 0-5.53-2.28m1.752 6.072a3.56 3.56 0 0 1 2.52 1.042 3.563 3.563 0 0 1 0 5.04l-3.505 3.503a3.563 3.563 0 0 1-5.038 0 3.563 3.563 0 0 1 0-5.038l3.503-3.505a3.56 3.56 0 0 1 2.52-1.042" transform="translate(-35.02 -25.78)"/></svg>